<svg xmlns="http://www.w3.org/2000/svg" version="1.1" xmlns:xlink="http://www.w3.org/1999/xlink" xmlns:svgjs="http://svgjs.dev/svgjs" width="2000" height="1247" viewBox="0 0 2000 1247"><g transform="matrix(1,0,0,1,-1.2121212121212466,0.5048891137001874)"><svg viewBox="0 0 396 247" data-background-color="#ffffff" preserveAspectRatio="xMidYMid meet" height="1247" width="2000" xmlns="http://www.w3.org/2000/svg" xmlns:xlink="http://www.w3.org/1999/xlink"><g id="tight-bounds" transform="matrix(1,0,0,1,0.2400000000000091,-0.10000610351559658)"><svg viewBox="0 0 395.52 247.2" height="247.2" width="395.52"><rect width="395.5199890136719" height="247.20001220703125" fill="url(#d4d62ba8-b901-4fea-b73c-5b2aeaa3f954)" mask="url(#f54f01f9-cb56-4d02-b52d-385d9108e4cf)" data-fill-palette-color="tertiary"></rect><g><svg></svg></g><g><svg viewBox="0 0 395.52 247.2" height="247.2" width="395.52"><g transform="matrix(1,0,0,1,75.54432,85.65038787286063)"><svg viewBox="0 0 244.43135999999998 75.89922425427872" height="75.89922425427872" width="244.43135999999998"><g><svg viewBox="0 0 244.43135999999998 75.89922425427872" height="75.89922425427872" width="244.43135999999998"><g><svg viewBox="0 0 244.43135999999998 75.89922425427872" height="75.89922425427872" width="244.43135999999998"><g><svg viewBox="0 0 244.43135999999998 75.89922425427872" height="75.89922425427872" width="244.43135999999998"><g id="textblocktransform"><svg viewBox="0 0 244.43135999999998 75.89922425427872" height="75.89922425427872" width="244.43135999999998" id="textblock"><g><svg viewBox="0 0 244.43135999999998 75.89922425427872" height="75.89922425427872" width="244.43135999999998"><g transform="matrix(1,0,0,1,0,0)"><svg width="244.43135999999998" viewBox="0.5409091711044312 -37.599998474121094 122.69908905029297 38.099998474121094" height="75.89922425427872" data-palette-color="url(#115a23f0-84bc-487b-b035-7e4f3965a5e7)"></svg></g></svg></g></svg></g></svg></g></svg></g></svg></g></svg></g><g><path d="M245.816 0c68.262 0 123.6 55.338 123.6 123.6 0 68.262-55.338 123.6-123.6 123.6-51.658 0-95.914-31.691-114.388-76.691l3.709 0c18.275 43.064 60.949 73.269 110.679 73.269 66.372 0 120.178-53.805 120.177-120.178 0-66.372-53.805-120.178-120.177-120.178-49.729 0-92.404 30.205-110.679 73.269l-3.709 0c18.474-45.001 62.73-76.691 114.388-76.691z" fill="url(#d4d62ba8-b901-4fea-b73c-5b2aeaa3f954)" stroke="transparent" data-fill-palette-color="tertiary"></path></g></svg></g><defs></defs><mask id="62901f32-c0c5-438e-9491-d715f4bae774"><g id="SvgjsG3798"><svg viewBox="0 0 395.52 247.2" height="247.2" width="395.52"><g><svg></svg></g><g><svg viewBox="0 0 395.52 247.2" height="247.2" width="395.52"><g transform="matrix(1,0,0,1,75.54432,85.65038787286063)"><svg viewBox="0 0 244.43135999999998 75.89922425427872" height="75.89922425427872" width="244.43135999999998"><g><svg viewBox="0 0 244.43135999999998 75.89922425427872" height="75.89922425427872" width="244.43135999999998"><g><svg viewBox="0 0 244.43135999999998 75.89922425427872" height="75.89922425427872" width="244.43135999999998"><g><svg viewBox="0 0 244.43135999999998 75.89922425427872" height="75.89922425427872" width="244.43135999999998"><g id="SvgjsG3797"><svg viewBox="0 0 244.43135999999998 75.89922425427872" height="75.89922425427872" width="244.43135999999998" id="SvgjsSvg3796"><g><svg viewBox="0 0 244.43135999999998 75.89922425427872" height="75.89922425427872" width="244.43135999999998"><g transform="matrix(1,0,0,1,0,0)"><svg width="244.43135999999998" viewBox="0.5409091711044312 -37.599998474121094 122.69908905029297 38.099998474121094" height="75.89922425427872" data-palette-color="url(#115a23f0-84bc-487b-b035-7e4f3965a5e7)"><path d="M2.75-5.9L14.4-15.8Q17.45-18.25 19.55-20.3 21.65-22.35 22.73-24.23 23.8-26.1 23.8-28L23.8-28Q23.8-29.7 23.03-30.8 22.25-31.9 20.93-32.48 19.6-33.05 17.95-33.05L17.95-33.05Q15.75-33.05 13.3-31.75 10.85-30.45 8.95-27.8L8.95-27.8Q8.7-27.45 8.3-27.7L8.3-27.7 4.7-29.95Q4.55-30.1 4.58-30.33 4.6-30.55 4.95-31L4.95-31Q7.55-34.3 11.2-35.95 14.85-37.6 18.6-37.6L18.6-37.6Q21.75-37.6 24.28-36.55 26.8-35.5 28.23-33.45 29.65-31.4 29.65-28.4L29.65-28.4Q29.65-25.5 28.48-23.18 27.3-20.85 25.15-18.75 23-16.65 20.15-14.3L20.15-14.3 9.4-5.65Q9.05-5.4 9.08-5.23 9.1-5.05 9.4-5.05L9.4-5.05 26.1-5.05Q26.9-5.05 26.75-4.4L26.75-4.4 26.25-0.55Q26.2-0.25 26.08-0.13 25.95 0 25.55 0L25.55 0 1.45 0Q0.45 0 0.55-1L0.55-1 0.9-3.65Q0.95-4 1.07-4.28 1.2-4.55 1.58-4.93 1.95-5.3 2.75-5.9L2.75-5.9ZM46.95-14.55L46.55-11.85Q46.5-11.45 46.3-11.33 46.1-11.2 45.6-11.2L45.6-11.2 34.15-11.2Q33.7-11.2 33.52-11.43 33.35-11.65 33.35-12.05L33.35-12.05 33.75-14.7Q33.85-15.05 33.95-15.15 34.05-15.25 34.25-15.25L34.25-15.25 46.4-15.25Q46.65-15.25 46.85-15.03 47.05-14.8 46.95-14.55L46.95-14.55ZM66.75 0.5L66.75 0.5Q62.45 0.5 59.37-1.3 56.3-3.1 54.67-6.48 53.05-9.85 53.05-14.45L53.05-14.45Q53.05-19.1 54.35-23.28 55.65-27.45 58.1-30.68 60.55-33.9 64.05-35.75 67.55-37.6 71.95-37.6L71.95-37.6Q75.7-37.6 78.55-36.1 81.4-34.6 83.02-32.23 84.65-29.85 84.7-27.15L84.7-27.15Q84.7-26.45 84.34-26.4L84.34-26.4 79.65-25.7Q79.4-25.65 79.3-25.85 79.2-26.05 79.15-26.6L79.15-26.6Q79-28.45 78.1-29.93 77.2-31.4 75.6-32.27 74-33.15 71.75-33.15L71.75-33.15Q68.45-33.15 66.12-31.48 63.8-29.8 62.27-27 60.75-24.2 60.02-20.73 59.3-17.25 59.3-13.75L59.3-13.75Q59.3-8.7 61.37-6.33 63.45-3.95 67.3-3.95L67.3-3.95Q69.55-3.95 71.3-4.7 73.05-5.45 74.35-6.65 75.65-7.85 76.47-9.28 77.3-10.7 77.65-12.05L77.65-12.05 78.05-14.5Q78.3-15.05 77.6-15.05L77.6-15.05 70.05-15.05Q69.6-15.05 69.65-15.55L69.65-15.55 70-18.45Q70.05-18.85 70.4-18.85L70.4-18.85 83.65-18.8Q84.05-18.8 84.17-18.68 84.3-18.55 84.25-18.15L84.25-18.15 81.75-0.6Q81.7 0 81.05 0L81.05 0 79.8 0Q79.1 0 78.95-0.65L78.95-0.65 78.8-5Q78.75-5.25 78.55-5.25 78.35-5.25 78.05-4.9L78.05-4.9Q77.05-3.55 75.47-2.3 73.9-1.05 71.72-0.28 69.55 0.5 66.75 0.5L66.75 0.5ZM104.29 0.5L104.29 0.5Q99.84 0.5 96.69-1.23 93.54-2.95 91.89-6.3 90.24-9.65 90.24-14.35L90.24-14.35Q90.24-15.35 90.29-16.45 90.34-17.55 90.54-18.7L90.54-18.7Q91.39-24.7 93.94-28.93 96.49-33.15 100.42-35.38 104.34-37.6 109.24-37.6L109.24-37.6Q113.64-37.6 116.79-35.83 119.94-34.05 121.59-30.68 123.24-27.3 123.24-22.5L123.24-22.5Q123.24-21.5 123.19-20.4 123.14-19.3 122.94-18.15L122.94-18.15Q122.09-12.25 119.59-8.08 117.09-3.9 113.19-1.7 109.29 0.5 104.29 0.5L104.29 0.5ZM104.54-3.95L104.54-3.95Q109.64-3.95 112.64-7.53 115.64-11.1 116.74-18.65L116.74-18.65Q116.94-20.05 117.02-21.3 117.09-22.55 117.09-23.6L117.09-23.6Q117.09-28.5 115.09-30.85 113.09-33.2 109.09-33.2L109.09-33.2Q104.09-33.2 100.99-29.5 97.89-25.8 96.79-18.1L96.79-18.1Q96.59-16.8 96.49-15.6 96.39-14.4 96.39-13.4L96.39-13.4Q96.39-8.55 98.44-6.25 100.49-3.95 104.54-3.95L104.54-3.95Z" opacity="1" transform="matrix(1,0,0,1,0,0)" fill="white" class="wordmark-text-0" id="SvgjsPath3795"></path></svg></g></svg></g></svg></g></svg></g></svg></g></svg></g></svg></g><g></g></svg></g><defs><mask></mask></defs></svg></g></mask><linearGradient x1="0.054" x2="0.941" y1="0.5" y2="0.5" id="115a23f0-84bc-487b-b035-7e4f3965a5e7"><stop stop-color="#0f3054" offset="0"></stop><stop stop-color="#3b8dcb" offset="0.498"></stop><stop stop-color="#0f3054" offset="1"></stop></linearGradient><rect width="395.5199890136719" height="247.20001220703125" fill="url(#115a23f0-84bc-487b-b035-7e4f3965a5e7)" mask="url(#62901f32-c0c5-438e-9491-d715f4bae774)" data-fill-palette-color="primary"></rect><mask id="f54f01f9-cb56-4d02-b52d-385d9108e4cf"><g id="SvgjsG3813"><svg viewBox="0 0 395.52 247.2" height="247.2" width="395.52"><g><svg></svg></g><g><svg viewBox="0 0 395.52 247.2" height="247.2" width="395.52"><g transform="matrix(1,0,0,1,75.54432,85.65038787286063)"><svg viewBox="0 0 244.43135999999998 75.89922425427872" height="75.89922425427872" width="244.43135999999998"><g><svg viewBox="0 0 244.43135999999998 75.89922425427872" height="75.89922425427872" width="244.43135999999998"><g><svg viewBox="0 0 244.43135999999998 75.89922425427872" height="75.89922425427872" width="244.43135999999998"><g><svg viewBox="0 0 244.43135999999998 75.89922425427872" height="75.89922425427872" width="244.43135999999998"><g id="SvgjsG3812"><svg viewBox="0 0 244.43135999999998 75.89922425427872" height="75.89922425427872" width="244.43135999999998" id="SvgjsSvg3811"><g><svg viewBox="0 0 244.43135999999998 75.89922425427872" height="75.89922425427872" width="244.43135999999998"><g transform="matrix(1,0,0,1,0,0)"><svg width="244.43135999999998" viewBox="0.5409091711044312 -37.599998474121094 122.69908905029297 38.099998474121094" height="75.89922425427872" data-palette-color="url(#115a23f0-84bc-487b-b035-7e4f3965a5e7)"></svg></g></svg></g></svg></g></svg></g></svg></g></svg></g></svg></g><g><path d="M245.816 0c68.262 0 123.6 55.338 123.6 123.6 0 68.262-55.338 123.6-123.6 123.6-51.658 0-95.914-31.691-114.388-76.691l3.709 0c18.275 43.064 60.949 73.269 110.679 73.269 66.372 0 120.178-53.805 120.177-120.178 0-66.372-53.805-120.178-120.177-120.178-49.729 0-92.404 30.205-110.679 73.269l-3.709 0c18.474-45.001 62.73-76.691 114.388-76.691z" fill="white" stroke="transparent"></path></g></svg></g><defs><mask></mask></defs><mask><g id="SvgjsG3810"><svg viewBox="0 0 395.52 247.2" height="247.2" width="395.52"><g><svg></svg></g><g><svg viewBox="0 0 395.52 247.2" height="247.2" width="395.52"><g transform="matrix(1,0,0,1,75.54432,85.65038787286063)"><svg viewBox="0 0 244.43135999999998 75.89922425427872" height="75.89922425427872" width="244.43135999999998"><g><svg viewBox="0 0 244.43135999999998 75.89922425427872" height="75.89922425427872" width="244.43135999999998"><g><svg viewBox="0 0 244.43135999999998 75.89922425427872" height="75.89922425427872" width="244.43135999999998"><g><svg viewBox="0 0 244.43135999999998 75.89922425427872" height="75.89922425427872" width="244.43135999999998"><g id="SvgjsG3809"><svg viewBox="0 0 244.43135999999998 75.89922425427872" height="75.89922425427872" width="244.43135999999998" id="SvgjsSvg3808"><g><svg viewBox="0 0 244.43135999999998 75.89922425427872" height="75.89922425427872" width="244.43135999999998"><g transform="matrix(1,0,0,1,0,0)"><svg width="244.43135999999998" viewBox="0.5409091711044312 -37.599998474121094 122.69908905029297 38.099998474121094" height="75.89922425427872" data-palette-color="url(#115a23f0-84bc-487b-b035-7e4f3965a5e7)"></svg></g></svg></g></svg></g></svg></g></svg></g></svg></g></svg></g><g></g></svg></g><defs><mask></mask></defs></svg></g></mask></svg></g></mask><linearGradient x1="0" x2="1" y1="0.578" y2="0.595" id="d4d62ba8-b901-4fea-b73c-5b2aeaa3f954"><stop stop-color="#6ee2f5" offset="0"></stop><stop stop-color="#6454f0" offset="1"></stop></linearGradient></svg><rect width="395.52" height="247.2" fill="none" stroke="none" visibility="hidden"></rect></g></svg></g></svg>